<svg xmlns="http://www.w3.org/2000/svg" version="1.2" viewBox="0 0 281 117" width="281" height="117">
	<title>logo</title>
	<defs fill="#000000">
		<clipPath clipPathUnits="userSpaceOnUse" id="cp1" fill="#000000">
			<path d="m0 0h281v117h-281z" fill="#000000"/>
		</clipPath>
	</defs>
	<style>
		.s0 { fill: #2196f3 } 
		.s1 { fill: #f48936 } 
	</style>
	<g id="Clip-Path" clip-path="url(#cp1)" style="display: none">
	</g>
	<path class="s0" d="m19.9 4.2c0 0.4-1.1 8.7-3.9 28.5-1 6.9-3.1 22-4.7 33.5-1.6 11.4-3.8 26.3-4.8 33-1 6.7-1.6 12.3-1.5 12.5 0.2 0.2 8-6.5 17.2-15 9.3-8.5 19.1-17.4 21.9-19.9l4.9-4.5h15.2c18.1 0 20.8-0.6 25.7-5.3 1.8-1.7 3.8-4.3 4.4-5.6 1.6-3.4 5.6-29.9 5.6-37 0-8.6-3.2-14.1-10.3-18.1l-3.8-2.1-32.9-0.2c-18.1 0-33 0-33 0.2zm62.9 17.5c1.2 1.3 1.1 2.4-1 16.8-1.2 8.5-2.6 15.9-3.1 16.4-0.6 0.6-5.3 0.9-18.6 1.1l-17.6 0.1-6.5 5.9c-3.6 3.3-6.9 6-7.4 6-1 0-1-0.7 1.4-17.3 2.3-15.5 4.3-29.6 4.3-30 0-0.2 10.7-0.3 23.7-0.3 22 0 23.7 0.1 24.8 1.3z" fill="#000000"/>
	<path class="s0" d="m43 36.7c-1.5 1.7 0.2 4.6 2.5 4.6 2.3 0 4-2.9 2.5-4.6-0.5-0.6-1.6-1.1-2.5-1.1-0.9 0-2 0.5-2.5 1.1z" fill="#000000"/>
	<path class="s0" d="m54.1 36.6c-1.1 2.8 1.5 5.7 3.9 4.3 1.5-1 2-3.9 0.7-4.7-1.5-1-4.2-0.7-4.6 0.4z" fill="#000000"/>
	<path class="s0" d="m65.3 36.7c-0.7 0.8-0.7 1.5-0.1 2.8 1 2.3 4 2.5 5.1 0.4 1.8-3.2-2.7-6-5-3.2z" fill="#000000"/>
	<path id="ingchat" class="s1" aria-label="ingchat" d="m111.2 57h-10.1l2.8-27.9h10.2zm5.5-27.9h25.3l-2.8 27.9h-10.1l2-20.3h-5.1l-2 20.3h-10.1zm28.1 0h25.3l-3.8 38h-25.3l0.7-7.5h15.2l2.4-22.9h-5.1l-1.3 12.7h2.5l-0.7 7.6h-12.7zm28.1 0h25.4l-1 10.1h-10.3l0.3-2.5h-5.1l-1.2 12.7h5l0.3-2.6h10.2l-1 10.2h-25.4zm35.5 27.9h-10l3.2-33h-2.5l0.7-7.5h12.8l-1.3 12.6h15.2l-3.8 38.1h-10.2l3.1-30.5h-5.2zm20.9-28h25.3l-2.8 27.9h-10.1l0.6-5.1-5.7 5.1h-10.1zm13.3 20.3l1.2-12.7h-5.1l-1.3 12.7zm27.3 7.6h-15.2l3.3-33h10.1l-0.5 5h5.2l-0.7 7.7h-5.3l-1.2 12.7h5.1z" fill="#000000"/>
</svg>
