<svg xmlns="http://www.w3.org/2000/svg" version="1.0" width="580.000000pt" height="387.000000pt" viewBox="0 0 580.000000 387.000000" preserveAspectRatio="xMidYMid meet">

<g transform="translate(0.000000,387.000000) scale(0.100000,-0.100000)" fill="#fb452f" stroke="none">
<path d="M2450 2696 c0 -6 -16 -121 -55 -396 -14 -96 -43 -305 -65 -465 -22 -159 -52 -366 -66 -458 -14 -93 -23 -171 -21 -174 3 -3 111 91 239 208 129 118 265 242 303 277 l69 62 211 0 c251 0 289 8 356 73 25 24 53 60 62 79 22 46 77 414 77 513 0 119 -44 196 -142 251 l-53 29 -457 3 c-252 1 -458 0 -458 -2z m873 -244 c16 -17 15 -33 -14 -233 -17 -118 -36 -220 -43 -227 -9 -9 -73 -13 -258 -15 l-245 -2 -90 -82 c-50 -46 -96 -83 -102 -83 -15 0 -15 10 19 240 32 215 60 411 60 417 0 2 148 3 328 3 306 0 330 -1 345 -18z" fill="#fb452f"/>
<path d="M2770 2245 c-20 -24 3 -65 35 -65 32 0 55 41 35 65 -7 8 -23 15 -35 15 -12 0 -28 -7 -35 -15z" fill="#fb452f"/>
<path d="M2924 2246 c-15 -39 21 -80 54 -60 21 14 28 54 10 65 -21 14 -58 10 -64 -5z" fill="#fb452f"/>
<path d="M3080 2245 c-10 -12 -10 -21 -2 -40 14 -31 56 -34 72 -5 24 44 -38 83 -70 45z" fill="#fb452f"/>
</g>
</svg>
