<svg version="1.2" xmlns="http://www.w3.org/2000/svg" viewBox="0 0 580 387" width="580" height="387">
	<title>1737093045047</title>
	<style>
		tspan { white-space:pre } 
		.s0 { fill: #fb452f } 
		.t1 { font-size: 77px;fill: #2b79d8;font-weight: 400;font-family: "Anton-Regular", "Anton" } 
	</style>
	<g>
		<path class="s0" d="m67 118.4c0 0.6-1.6 12.1-5.5 39.6-1.4 9.6-4.3 30.5-6.5 46.5-2.2 15.9-5.2 36.6-6.6 45.8-1.4 9.3-2.3 17.1-2.1 17.4 0.3 0.3 11.1-9.1 23.9-20.8 12.9-11.8 26.5-24.2 30.3-27.7l6.9-6.2h21.1c25.1 0 28.9-0.8 35.6-7.3 2.5-2.4 5.3-6 6.2-7.9 2.2-4.6 7.7-41.4 7.7-51.3 0-11.9-4.4-19.6-14.2-25.1l-5.3-2.9-45.7-0.3c-25.2-0.1-45.8 0-45.8 0.2zm87.3 24.4c1.6 1.7 1.5 3.3-1.4 23.3-1.7 11.8-3.6 22-4.3 22.7-0.9 0.9-7.3 1.3-25.8 1.5l-24.5 0.2-9 8.2c-5 4.6-9.6 8.3-10.2 8.3-1.5 0-1.5-1 1.9-24 3.2-21.5 6-41.1 6-41.7 0-0.2 14.8-0.3 32.8-0.3 30.6 0 33 0.1 34.5 1.8z"/>
		<text id="" style="transform: matrix(1,0,0,1,217,167)" >
		</text>
		<text id="ingchat" style="transform: matrix(.792,0,0,.792,181.956,207.459)" >
			<tspan x="0" y="0" class="t1">i</tspan><tspan  y="0" class="t1">n</tspan><tspan  y="0" class="t1">g</tspan><tspan  y="0" class="t1">c</tspan><tspan  y="0" class="t1">h</tspan><tspan  y="0" class="t1">a</tspan><tspan  y="0" class="t1">t
</tspan>
		</text>
		<path class="s0" d="m99 163.5c-2 2.4 0.3 6.5 3.5 6.5 3.2 0 5.5-4.1 3.5-6.5-0.7-0.8-2.3-1.5-3.5-1.5-1.2 0-2.8 0.7-3.5 1.5z"/>
		<path class="s0" d="m114.4 163.4c-1.5 3.9 2.1 8 5.4 6 2.1-1.4 2.8-5.4 1-6.5-2.1-1.4-5.8-1-6.4 0.5z"/>
		<path class="s0" d="m130 163.5c-1 1.2-1 2.1-0.2 4 1.4 3.1 5.6 3.4 7.2 0.5 2.4-4.4-3.8-8.3-7-4.5z"/>
	</g>
</svg>
