<svg xmlns="http://www.w3.org/2000/svg" version="1.0" width="899.225.000000pt" height="600.000000pt" viewBox="0 0 899.225 600" preserveAspectRatio="xMidYMid meet">
  <g transform="matrix(.1 0 0 -.1 0 387)" fill="#fb452f" stroke="none">
    <path d="M3798.45 4179.846c0 -9.302 -24.806 -187.597 -85.271 -613.954 -21.706 -148.837 -66.667 -472.869 -100.775 -720.93 -34.109 -246.512 -80.62 -567.442 -102.326 -710.078 -21.706 -144.186 -35.659 -265.116 -32.558 -269.767 4.651 -4.651 172.093 141.085 370.543 322.481 200 182.946 410.853 375.194 469.768 429.457l106.977 96.124h327.132c389.147 0 448.062 12.403 551.938 113.178 38.759 37.21 82.171 93.023 96.124 122.48 34.109 71.318 119.38 641.86 119.38 795.349 0 184.496 -68.217 303.876 -220.155 389.147l-82.171 44.961 -708.528 4.651c-390.698 1.55 -710.078 0 -710.078 -3.101m1353.489 -378.295c24.806 -26.357 23.256 -51.163 -21.706 -361.24 -26.357 -182.946 -55.814 -341.085 -66.667 -351.938 -13.954 -13.954 -113.178 -20.155 -400 -23.256l-379.845 -3.101 -139.535 -127.132c-77.519 -71.318 -148.837 -128.682 -158.14 -128.682 -23.256 0 -23.256 15.504 29.458 372.093 49.612 333.334 93.023 637.209 93.023 646.512 0 3.101 229.457 4.651 508.527 4.651 474.419 0 511.628 -1.55 534.884 -27.907" fill="#fb452f"/>
    <path d="M4294.575 3480.621c-31.008 -37.21 4.651 -100.775 54.263 -100.775s85.271 63.566 54.263 100.775c-10.853 12.403 -35.659 23.256 -54.263 23.256s-43.411 -10.853 -54.263 -23.256" fill="#fb452f"/>
    <path d="M4533.335 3482.172c-23.256 -60.465 32.558 -124.031 83.721 -93.023 32.558 21.706 43.411 83.721 15.504 100.775 -32.558 21.706 -89.923 15.504 -99.225 -7.752" fill="#fb452f"/>
    <path d="M4775.195 3480.621c-15.504 -18.605 -15.504 -32.558 -3.101 -62.015 21.706 -48.062 86.822 -52.713 111.628 -7.752 37.21 68.217 -58.915 128.682 -108.527 69.767" fill="#fb452f"/>
  </g>
</svg>
