<svg xmlns="http://www.w3.org/2000/svg" version="1.0" width="1498.708.000000pt" height="1000.000000pt" viewBox="0 0 1498.708 1000" preserveAspectRatio="xMidYMid meet"><g transform="matrix(.1 0 0 -.1 0 387)" fill="#fb452f" stroke="none"><path d="M6330.749 6966.408c0 -15.504 -41.344 -312.661 -142.119 -1023.256 -36.176 -248.062 -111.111 -788.114 -167.959 -1201.55 -56.848 -410.853 -134.367 -945.736 -170.543 -1183.463 -36.176 -240.31 -59.432 -441.86 -54.264 -449.612 7.752 -7.752 286.822 235.142 617.571 537.468 333.333 304.91 684.755 625.323 782.946 715.762l178.295 160.207h545.22c648.579 0 746.77 20.672 919.897 188.63 64.599 62.016 136.951 155.039 160.207 204.134 56.848 118.863 198.966 1069.767 198.966 1325.581 0 307.494 -113.695 506.46 -366.925 648.579l-136.951 74.935 -1180.879 7.752c-651.163 2.584 -1183.463 0 -1183.463 -5.168m2255.814 -630.491c41.344 -43.928 38.76 -85.271 -36.176 -602.067 -43.928 -304.91 -93.023 -568.475 -111.111 -586.563 -23.256 -23.256 -188.63 -33.592 -666.667 -38.76l-633.075 -5.168 -232.558 -211.886c-129.199 -118.863 -248.062 -214.47 -263.566 -214.47 -38.76 0 -38.76 25.84 49.096 620.155 82.687 555.556 155.039 1062.015 155.039 1077.519 0 5.168 382.429 7.752 847.545 7.752 790.698 0 852.713 -2.584 891.473 -46.512" fill="#fb452f"/><path d="M7157.623 5801.034c-51.68 -62.016 7.752 -167.959 90.439 -167.959s142.119 105.943 90.439 167.959c-18.088 20.672 -59.432 38.76 -90.439 38.76s-72.351 -18.088 -90.439 -38.76" fill="#fb452f"/><path d="M7555.556 5803.618c-38.76 -100.775 54.264 -206.718 139.535 -155.039 54.264 36.176 72.351 139.535 25.84 167.959 -54.264 36.176 -149.871 25.84 -165.375 -12.92" fill="#fb452f"/><path d="M7958.656 5801.034c-25.84 -31.008 -25.84 -54.264 -5.168 -103.359 36.176 -80.103 144.703 -87.855 186.047 -12.92 62.016 113.695 -98.191 214.47 -180.879 116.279" fill="#fb452f"/></g></svg>
